<svg xmlns="http://www.w3.org/2000/svg" viewBox="0 0 512 512">
  <rect width="512" height="512" rx="96" fill="#1a1a2e"/>
  <rect x="80" y="80" width="352" height="352" rx="48" fill="#0f3460"/>
  <rect x="120" y="130" width="272" height="70" rx="14" fill="#2E75B6"/>
  <text x="256" y="189" text-anchor="middle" font-family="Arial" font-size="54" font-weight="bold" fill="white">123</text>
  <rect x="120" y="220" width="78" height="54" rx="12" fill="#22c55e"/>
  <rect x="217" y="220" width="78" height="54" rx="12" fill="#22c55e"/>
  <rect x="314" y="220" width="78" height="54" rx="12" fill="#2E75B6"/>
  <rect x="120" y="290" width="78" height="54" rx="12" fill="#f59e0b"/>
  <rect x="217" y="290" width="78" height="54" rx="12" fill="#f59e0b"/>
  <rect x="314" y="290" width="78" height="108" rx="12" fill="#ef4444"/>
  <rect x="120" y="360" width="78" height="54" rx="12" fill="#374151"/>
  <rect x="217" y="360" width="78" height="54" rx="12" fill="#374151"/>
  <text x="159" y="257" text-anchor="middle" font-family="Arial" font-size="28" font-weight="bold" fill="white">7</text>
  <text x="256" y="257" text-anchor="middle" font-family="Arial" font-size="28" font-weight="bold" fill="white">8</text>
  <text x="353" y="257" text-anchor="middle" font-family="Arial" font-size="28" font-weight="bold" fill="white">/</text>
  <text x="159" y="327" text-anchor="middle" font-family="Arial" font-size="28" font-weight="bold" fill="white">4</text>
  <text x="256" y="327" text-anchor="middle" font-family="Arial" font-size="28" font-weight="bold" fill="white">5</text>
  <text x="353" y="350" text-anchor="middle" font-family="Arial" font-size="28" font-weight="bold" fill="white">OK</text>
  <text x="159" y="397" text-anchor="middle" font-family="Arial" font-size="28" font-weight="bold" fill="white">DEL</text>
  <text x="256" y="397" text-anchor="middle" font-family="Arial" font-size="28" font-weight="bold" fill="white">0</text>
</svg>
